<svg width="388" height="186" viewBox="0 0 388 186" fill="none" xmlns="http://www.w3.org/2000/svg">
<path d="M409.588 168.519C345.083 168.698 135.182 186.16 68.3714 185.951C1.56053 185.741 -21.893 116.596 25.7751 85.7801C73.4432 54.9643 102.49 74.1273 102.49 74.1273C102.49 74.1273 93.437 22.438 131.785 5.44791C170.127 -11.5394 218.128 11.566 223.404 71.465C223.404 71.465 222.845 53.0233 251.729 40.8848C280.614 28.7463 328.606 38.9233 359.449 68.2725C390.293 97.6216 381.277 119.256 372.531 127.05C372.531 127.05 427.597 120.139 461.63 133.138C495.664 146.136 474.093 168.34 409.588 168.519Z" fill="#FFB287" fill-opacity="0.3"/>
</svg>
