<svg width="276" height="236" viewBox="0 0 276 236" fill="none" xmlns="http://www.w3.org/2000/svg">
<path d="M245.141 54.0835C245.141 54.0835 250.627 14.5297 217.821 5.12963C185.014 -4.27041 164 4.12298 156.658 6.70949C149.316 9.296 107.342 38.196 135.568 67.6987C135.568 67.6987 129.204 64.8611 126.54 67.4243C123.876 69.9875 123.879 69.9875 123.879 69.9875C123.879 69.9875 110.499 67.8237 100.177 76.1609C89.8545 84.501 95.8849 87.0209 98.2317 88.6036C100.578 90.1863 98.9096 90.1946 98.9096 90.1946C98.9096 90.1946 79.2101 94.7566 72.216 99.8913C65.2219 105.026 59.2345 111.114 84.9579 107.797C110.681 104.48 123.701 101.548 123.701 101.548C123.701 101.548 100.666 107.083 100.688 111.546C100.71 116.01 155.479 105.534 166.163 103.251C176.847 100.967 225.906 85.1006 235.918 81.8647C235.918 81.8647 227.257 87.9632 234.277 87.9282C241.296 87.8932 270.298 72.1297 274.295 69.2404C278.291 66.3512 265.594 67.37 265.594 67.37C265.594 67.37 267.893 59.3893 263.855 53.9902C259.817 48.591 247.467 50.8831 245.141 54.0835Z" fill="#F3E7D9"/>
<path d="M82.9341 59.2551C82.9341 59.2551 85.5558 50.5911 77.6927 47.008C72.5007 44.6437 62.3374 51.2288 63.2013 57.1201C63.5758 59.6653 59.8479 55.223 54.1876 59.715C48.5272 64.207 49.0654 71.3748 49.0654 71.3748C49.0654 71.3748 36.5506 75.4218 34.8835 76.3856C33.2163 77.3494 31.2236 79.5927 44.5736 75.6984C57.9267 71.8127 82.9341 59.2551 82.9341 59.2551Z" fill="#F3E7D9"/>
<path d="M49.0957 130.08C49.0957 130.08 47.0618 124.671 36.3744 126.319C25.6871 127.967 21.7177 136.275 23.3913 137.222C25.068 138.169 25.4077 139.126 25.4077 139.126C25.4077 139.126 10.0635 145.577 4.05866 148.157C-1.94623 150.737 4.08884 154.212 15.7668 149.693C27.4448 145.171 57.4744 134.502 68.4967 132.853C79.519 131.204 49.0957 130.08 49.0957 130.08Z" fill="#F3E7D9"/>
<path d="M114.487 175.457C93.6545 182.526 91.6928 192.193 91.6928 192.193C91.6928 192.193 49.0092 201.18 39.3479 205.846C29.6865 210.512 16.2145 218.748 35.5691 224.795C48.6628 228.885 80.647 234.727 109.192 230.429C137.737 226.131 156.3 223.403 163.933 218.679C171.566 213.957 164.323 208.098 164.323 208.098C164.323 208.098 181.789 209.671 206.57 209.259C231.351 208.847 245.201 202.706 233.464 198.412C233.464 198.412 294.138 180.334 262.252 170.219C257.16 168.858 244.764 158.878 204.093 158.735C163.421 158.593 143.489 165.615 114.487 175.457Z" fill="#856792"/>
<path d="M162.414 179.134C162.414 179.134 133.431 186.289 138.464 190.195C143.496 194.1 161.687 193.524 161.687 193.524C161.687 193.524 169.765 201.907 184.443 200.855C199.12 199.804 209.272 198.82 218.109 195.476C226.945 192.132 263.495 183.254 230.799 178.756C198.104 174.258 162.414 179.134 162.414 179.134Z" fill="#4B3355"/>
<path d="M151.756 170.547C134.815 173.969 131.89 176.947 144.283 179.809C156.677 182.671 161.421 179.684 169.535 175.507C177.653 171.331 168.701 167.123 151.756 170.547Z" fill="#4B3355"/>
<path d="M144.61 196.199C138.792 194.842 133.492 199.486 145.113 199.89C156.735 200.294 150.426 197.554 144.61 196.199Z" fill="#4B3355"/>
<path d="M118.261 204.063C118.261 204.063 117.522 204.169 116.372 204.352C111.548 205.115 99.4512 207.194 103.755 208.291C109.088 209.651 129.414 207.701 122.62 204.965" fill="#4B3355"/>
<path d="M91.8556 197.865C91.8556 197.865 54.6511 203.199 49.0149 207.143C43.3787 211.088 65.5431 213.804 65.5431 213.804C65.5431 213.804 73.0908 215.318 83.4557 214.399C93.8207 213.48 126.478 206.056 117.327 202.285C110.245 199.362 91.8556 197.865 91.8556 197.865Z" fill="#4B3355"/>
<path d="M137.115 212.417C137.115 212.417 115.889 211.322 119.846 216.037C123.802 220.752 154.435 215.195 137.115 212.417Z" fill="#4B3355"/>
<path d="M145.975 227.011C142.311 228.741 133.914 234.458 153.274 234.362C172.634 234.265 176.77 222.24 172.095 222.263C167.424 222.286 149.637 225.284 145.975 227.011Z" fill="#856792"/>
<path d="M168.112 147.916C168.112 147.916 117.768 153.897 108.439 157.349C99.1093 160.801 86.1741 170.521 109.554 172.971C132.935 175.425 145.939 179.555 156.301 175.106C166.664 170.656 158.832 161.99 158.832 161.99C158.832 161.99 177.535 163.397 189.985 160.642C202.437 157.882 204.952 141.535 168.112 147.916Z" fill="#856792"/>
<path d="M199.573 198.273C197.48 198.899 195.723 202.91 201.05 202.883C206.376 202.856 211.904 201.055 209.747 199.146C207.151 196.849 201.67 197.646 199.573 198.273Z" fill="#4B3355"/>
<path d="M176.4 211.622C176.4 211.622 172.056 214.414 177.385 214.849C182.714 215.285 182.696 211.591 176.4 211.622Z" fill="#856792"/>
<path d="M179.071 218.209C177.103 220.104 175.747 222.869 183.052 223.124C190.357 223.378 190.63 217.427 188.197 217.148C185.758 216.87 181.038 216.314 179.071 218.209Z" fill="#856792"/>
<path d="M222.307 193.541C222.307 193.541 222.479 195.54 226.512 195.215C230.545 194.886 235.056 193.173 235.056 193.173C235.056 193.173 238.93 193.461 241.825 191.599C244.72 189.736 241.638 186.52 233.254 188.256C224.871 189.989 221.173 192.777 222.307 193.541Z" fill="#4B3355"/>
<path d="M172.848 154.732C172.848 154.732 160.86 154.099 164.511 157.543C168.159 160.99 183.03 157.454 172.848 154.732Z" fill="#4B3355"/>
<path d="M172.76 137.79L172.538 154.423L170.433 155.899L167.973 159.699C167.973 159.699 168.292 162.616 168.011 167.286C167.729 171.957 167.146 178.086 167.146 178.086L205.466 193.069L220.154 193.581L232.947 191.951L254.196 180.764L248.153 163.096L247.521 159.306L242.613 156.997L245.661 154.649L243.105 132.779L190.782 132.164L172.76 137.79Z" fill="#7A462F"/>
<path d="M243.108 132.77L216.747 123.273L188.305 126.041L172.76 137.79C172.76 137.79 175.217 139.82 180.113 139.796C185.009 139.771 206.744 142.29 206.744 142.29L222.654 141.92C222.654 141.92 235.175 137.188 238.843 136.294C242.511 135.4 243.108 132.77 243.108 132.77Z" fill="#A96443"/>
<path d="M241.144 184.52L231.406 173.949L230.367 159.18L224.971 145.353L225.995 156.429L228.922 161.033L228.505 174.426L229.037 184.118L220.157 193.578L232.917 185.485L231.429 178.567L237.762 185.923L241.144 184.52Z" fill="#A96443"/>
<path d="M212.844 140.797L211.908 147.267L205.58 140.374L212.844 140.797Z" fill="#A96443"/>
<path d="M231.223 137.011L234.637 141.612L237.025 135.137L231.223 137.011Z" fill="#A96443"/>
<path d="M209.417 132.964L208.03 146.362L212.907 153.263L212.466 162.039L210.499 155.586L205.608 145.912L209.417 132.964Z" fill="#A96443"/>
<path d="M214.845 153.254L214.898 163.872L219.317 176.78L219.833 183.24L221.239 173.538L217.799 163.399L214.845 153.254Z" fill="#A96443"/>
<path d="M218.24 154.623L217.797 162.937L219.76 168.466L219.222 157.85L220.398 150.687L218.24 154.623Z" fill="#A96443"/>
<path d="M173.701 155.538L172.044 163.473L173.859 171.005L173.079 176.548L174.986 170.999L173.177 163.926L173.701 155.538Z" fill="#A96443"/>
<path d="M237.523 137.904C237.523 137.904 237.075 145.293 237.082 146.679C237.089 148.065 237.159 162.147 237.159 162.147L243.514 174.582L241.517 162.818L254.195 180.761L247.52 159.303L242.613 156.994L245.661 154.646L243.813 137.875L242.143 142.036L241.945 150.811L240.221 145.277L240.44 140.428L237.523 137.904Z" fill="#A96443"/>
<path d="M238.148 190.767C239.478 190.529 241.757 186.479 236.156 180.041C233.834 177.374 234.059 184.689 234.981 187.32C235.907 189.951 236.818 191.005 238.148 190.767Z" fill="#33A86D"/>
<path d="M239.753 187C239.753 187 237.841 179.602 239.238 179.683C243.439 179.925 241.939 182.579 241.939 182.579C241.939 182.579 247.711 177.182 248.789 179.122C249.866 181.065 246.047 184.056 246.047 184.056C246.047 184.056 256.132 177.545 251.216 182.513C246.303 187.48 238.997 190.577 239.753 187Z" fill="#33A86D"/>
<path d="M234.293 169.779C234.293 169.779 236.261 175.77 237.693 172.07C239.128 168.369 238.145 165.604 234.293 169.779Z" fill="#33A86D"/>
<path d="M246.889 171.103C246.889 171.103 249.775 167.395 246.386 167.411C242.996 167.428 244.946 170.189 246.889 171.103Z" fill="#33A86D"/>
<path d="M233.664 140.693C233.664 140.693 234.654 144.844 231.742 143.934C228.829 143.025 228.814 139.333 233.664 140.693Z" fill="#33A86D"/>
<path d="M233.218 148.544C233.218 148.544 239.988 147.124 236.593 145.758C233.197 144.388 230.307 147.175 233.218 148.544Z" fill="#33A86D"/>
<path d="M237.13 156.374C237.13 156.374 241.467 152.197 237.107 151.756C232.747 151.319 232.285 155.936 237.13 156.374Z" fill="#33A86D"/>
<path d="M227.898 149.957C227.898 149.957 228.41 155.496 230.336 153.638C232.262 151.78 232.244 147.627 227.898 149.957Z" fill="#33A86D"/>
<path d="M212.286 196.324C212.286 196.324 209.142 191.382 211.903 189.055C214.663 186.725 212.286 196.324 212.286 196.324Z" fill="#288453"/>
<path d="M210.331 195.292C209.572 196.528 203.376 184.246 206.278 183.884C209.181 183.521 211.094 194.059 210.331 195.292Z" fill="#288453"/>
<path d="M204.959 194.091C204.187 192.825 203.386 186.249 205.902 188.929C207.752 190.902 208.214 191.302 208.752 194.226C209.29 197.147 205.731 195.356 204.959 194.091Z" fill="#288453"/>
<path d="M167.767 179.806C167.767 179.806 166.756 171.268 163.856 172.207C160.957 173.146 164.365 177.053 164.365 177.053C164.365 177.053 159.989 173.381 161.216 176.607C162.444 179.832 167.767 179.806 167.767 179.806Z" fill="#33A86D"/>
<path d="M170.675 180.484C170.675 180.484 172.827 175.394 170.405 174.944C167.983 174.494 168.48 177.492 168.48 177.492C168.48 177.492 166.277 172.423 166.048 174.965C165.818 177.505 167.281 179.346 168.977 180.031C170.676 180.715 170.676 180.715 170.676 180.715" fill="#288453"/>
<path d="M101.298 225.04C101.298 225.04 96.8922 215.367 99.0846 217.778C101.274 220.191 102.008 221.574 102.008 221.574C102.008 221.574 101.252 215.691 103.801 217.064C106.35 218.438 104.915 222.253 104.915 222.253C104.915 222.253 108.896 219.115 109.268 221.193C109.64 223.27 104.208 226.064 101.298 225.04Z" fill="#33A86D"/>
<path d="M77.9461 227.005C77.9461 227.005 74.279 219.75 76.8178 219.047C79.3565 218.341 80.1075 223.186 80.1075 223.186C80.1075 223.186 79.7007 214.184 82.9667 214.167C86.2327 214.151 83.3683 222.129 83.3683 222.129C83.3683 222.129 84.4484 220.392 86.2724 222.114C88.0965 223.837 87.0234 226.959 87.0234 226.959C87.0234 226.959 90.6422 224.517 92.8312 226.237C95.0171 227.958 92.8432 228.662 92.8432 228.662C92.8432 228.662 99.7362 227.241 99.38 228.974C99.0267 230.707 93.2224 232.122 87.7691 230.763C82.3159 229.404 70.3367 230.505 71.4146 227.727C72.4894 224.953 77.9461 227.005 77.9461 227.005Z" fill="#33A86D"/>
<path d="M37.0609 212.151C37.0609 212.151 30.8177 205.925 35.4585 201.495L36.8379 205.803C36.8379 205.803 38.763 200.203 41.4336 198.342L38.6241 206.539C38.6241 206.539 40.5718 202.453 43.2189 201.282C45.866 200.114 37.0609 212.151 37.0609 212.151Z" fill="#856792"/>
<path d="M34.4576 211.948C34.4576 211.948 28.28 208.065 21.6259 207.616C21.6259 207.616 26.2422 206.082 29.1838 206.985C32.1254 207.889 32.1244 210.094 32.1244 210.094L30.7686 205.095C30.7686 205.095 36.8993 210.355 37.0578 212.151C37.2163 213.948 34.4576 211.948 34.4576 211.948Z" fill="#856792"/>
<path d="M258.231 171.888C258.231 171.888 256.031 163.884 258.888 161.479L258.979 165.951C258.979 165.951 260.67 161.482 262.222 160.733L259.748 167.277C259.748 167.277 261.246 164.214 262.693 164.093C264.14 163.972 258.231 171.888 258.231 171.888Z" fill="#856792"/>
<path d="M256.993 170.756C256.993 170.756 254.511 164.941 251.333 162.119C251.333 162.119 253.787 162.375 255.097 164.274C256.408 166.173 256.11 168.205 256.11 168.205L256.123 163.105C256.123 163.105 258.399 170.173 258.234 171.888C258.069 173.603 256.993 170.756 256.993 170.756Z" fill="#856792"/>
<path d="M143.805 174.398C143.745 174.418 143.685 174.444 143.629 174.476C142.77 174.931 134.442 176.547 133.627 177.509C132.961 178.294 133.142 181.63 133.37 182.913C133.441 183.312 133.738 183.635 134.146 183.759C135.802 184.27 138.168 185.522 142.232 185.276C147.617 184.95 148.686 184.628 152.682 182.785C155.299 181.58 159.394 180.427 160.187 180.035C160.566 179.848 160.732 179.488 160.751 179.091L160.944 174.741C160.969 174.196 160.64 173.721 160.063 173.624C157.386 173.181 149.904 172.237 143.805 174.398Z" fill="#29ABE2"/>
<path d="M146.713 172.706C146.713 172.706 134.404 176.122 133.547 177.067C132.691 178.013 133.292 181.718 133.292 181.718C133.292 181.718 136.853 183.771 142.18 183.259C147.528 182.745 148.771 183.015 152.746 181.327C155.829 180.017 159.987 178.886 160.581 178.61C160.739 178.535 160.84 178.397 160.848 178.243L161.036 174.397C161.052 174.047 160.772 173.737 160.371 173.668C158 173.266 153.067 170.607 146.713 172.706Z" fill="#121721"/>
<path d="M139.362 175.384C139.362 175.384 142.73 174.854 145.267 176.906" stroke="#29ABE2" stroke-width="2" stroke-miterlimit="10" stroke-linecap="round" stroke-linejoin="round"/>
<path d="M141.677 174.32C141.677 174.32 144.095 173.923 148.141 176.21" stroke="#29ABE2" stroke-width="2" stroke-miterlimit="10" stroke-linecap="round" stroke-linejoin="round"/>
<path d="M186.885 111.24C186.885 111.24 165.296 106.883 157.01 106.132C152.444 105.718 150.342 107.006 148.952 109.509C147.558 112.009 147.954 120.541 152.461 122.88C156.968 125.219 164.095 125.061 169.864 126.906C175.631 128.749 183.908 133.18 188.67 130.894C193.432 128.608 199.972 116.422 186.885 111.24Z" fill="#CE9436"/>
<path d="M186.885 111.24L177.186 109.505L159.475 124.825C159.475 124.825 167.318 126.092 169.861 126.906C175.628 128.749 183.905 133.18 188.667 130.894C193.432 128.609 193.766 111.051 186.885 111.24Z" fill="#F7BC4B"/>
<path d="M161.253 141.208C161.253 141.208 160.025 121.068 160.443 116.725C160.864 112.382 160.382 106.275 152.272 105.987C146.783 105.792 143.599 106.667 143.307 112.977C143.075 118.007 142.506 122.131 143.328 127.315C144.433 134.269 145.143 166.182 144.105 167.317C143.066 168.452 142.956 167.999 143.096 170.716C143.208 172.909 145.216 173.122 150.577 174.016C153.869 174.39 157.218 176.504 159.901 174.879C162.585 173.255 161.927 172.077 161.927 172.077L161.767 169.351L161.253 141.208Z" fill="#CE9436"/>
<path d="M161.253 141.207C161.253 141.207 163.527 121.721 163.948 117.378C164.369 113.035 153.97 140.032 154.773 142.8C155.58 145.568 155.967 151.251 155.967 151.251L153.941 148.626C153.941 148.626 151.998 166.77 152.137 169.49C152.249 171.683 145.213 173.127 150.574 174.019C153.866 174.393 157.214 176.507 159.898 174.882C162.582 173.257 161.924 172.08 161.924 172.08L161.764 169.354L161.253 141.207Z" fill="#F7BC4B"/>
<path d="M225.623 114.107C225.623 114.107 230.188 123.32 228.762 128.866C227.336 134.415 226.047 134.421 219.264 133.993C213.068 133.602 177.085 130.701 183.355 117.703C188.618 106.79 197.352 108.706 206.88 110.198C216.41 111.691 225.623 114.107 225.623 114.107Z" fill="#F7BC4B"/>
<path d="M182.334 74.2998C182.334 74.2998 176.726 78.5291 176.263 83.9992C175.8 89.4692 172.24 95.4625 170.865 97.3347C169.489 99.2069 166.056 105.884 172.143 109.544C178.23 113.205 180.375 104.871 182.644 101.206C184.914 97.5413 188.223 94.1677 189.922 88.7257C191.621 83.2809 193.398 70.3228 182.334 74.2998Z" fill="#7A462F"/>
<path d="M176.919 105.867C176.919 105.867 178.429 109.853 173.766 114.026C169.103 118.199 161.29 124.761 159.259 126.545C157.229 128.33 154.318 127.68 152.281 125.819C150.244 123.955 152.147 121.116 157.089 115.35C162.031 109.584 167.418 101.793 172.155 99.9724C176.893 98.1518 176.919 105.867 176.919 105.867Z" fill="#7A462F"/>
<path d="M164.798 118.104C165.695 117.398 178.429 109.853 173.766 114.026C169.103 118.199 161.29 124.761 159.259 126.546C157.228 128.33 155.627 124 157.553 122.145C159.479 120.29 161.494 120.699 164.798 118.104Z" fill="#A96443"/>
<path d="M154.269 121.377C153.256 121.116 151.7 121.56 149.565 122.184C147.952 122.654 145.453 122.898 143.758 123.137C141.095 123.513 141.093 122.535 139.322 123.699C138.431 124.285 138.913 125.652 139.495 126.005C140.872 126.845 144.823 126.147 145.348 126.361C145.872 126.575 142.281 130.327 142.118 130.604C141.954 130.882 137.607 132.948 136.674 133.586C135.741 134.224 136.434 134.72 136.84 135.063C137.245 135.406 138.675 135.376 138.675 135.376C138.675 135.376 137.332 135.987 138.309 136.955C139.289 137.926 139.994 137.788 140.587 137.463C141.181 137.138 142.086 136.894 142.086 136.894C142.086 136.894 141.883 138.198 143.272 138.314C144.66 138.43 145.196 138.013 145.196 138.013C145.196 138.013 145.439 138.634 146.607 138.936C147.775 139.238 147.88 138.867 149.923 137.559C151.965 136.251 154.743 134.418 155.541 133.666C156.339 132.915 159.194 127.273 158.561 125.676C157.934 124.074 155.281 121.637 154.269 121.377Z" fill="#7A462F"/>
<path d="M155.951 124.152C154.939 123.891 151.95 123.099 149.818 123.72C148.205 124.19 145.218 123.82 143.526 124.06C140.863 124.435 141.425 123.069 139.654 124.233C138.763 124.819 138.922 125.648 139.501 126.005C140.878 126.845 144.829 126.147 145.353 126.361C145.878 126.575 142.287 130.326 142.123 130.604C141.96 130.881 137.613 132.948 136.68 133.586C135.747 134.224 136.44 134.72 136.846 135.063C137.251 135.406 138.98 134.895 138.98 134.895C138.98 134.895 137.338 135.987 138.315 136.958C139.295 137.928 139.943 137.172 140.603 137.003C141.529 136.768 142.216 136.533 142.216 136.533C142.216 136.533 141.551 138.177 143.278 138.316C144.322 138.4 146.343 137.003 146.343 137.003C146.343 137.003 145.347 137.758 146.017 138.246C147.052 138.999 147.659 138.295 149.701 136.987C151.744 135.679 154.147 133.585 154.945 132.833C155.743 132.082 158.266 127.203 157.633 125.606C157 124.007 156.963 124.412 155.951 124.152Z" fill="#A96443"/>
<path d="M144.612 131.75C144.612 131.75 147.324 133.431 148.415 133.77C149.505 134.11 150.275 134.414 150.275 134.414C150.275 134.414 146.067 132.088 145.824 131.975C145.582 131.862 144.246 130.905 144.246 130.905L144.612 131.75Z" fill="#7A462F"/>
<path d="M145.377 137.643L148.06 135.869L149.868 134.302C149.868 134.302 149.283 135.144 148.142 136.048C147.448 136.597 146.215 137.21 145.377 137.643Z" fill="#7A462F"/>
<path d="M142.214 136.648L144.947 134.712C144.947 134.712 146.621 133.369 147.6 133.004L145.431 134.709L142.214 136.648Z" fill="#7A462F"/>
<path d="M138.575 135.088L142.562 133.337L144.611 131.479C144.611 131.479 142.722 132.951 142.4 133.184C142.078 133.417 137.971 135.206 137.971 135.206L138.575 135.088Z" fill="#7A462F"/>
<path d="M201.993 68.2835C191.509 69.2599 186.675 71.0524 184.258 72.1426C181.844 73.2328 182.329 74.0005 182.329 74.0005C182.329 74.0005 183.177 81.9997 183.676 84.9208C184.175 87.8418 185.44 95.1173 185.884 98.9143C186.372 103.09 189.938 110.551 189.708 113.094C189.431 116.176 191.2 120.705 191.2 120.705C191.2 120.705 200.309 118.543 206.767 119.281C213.225 120.019 226.124 117.413 226.769 117.256C227.414 117.099 226.84 115.407 226.833 113.87C226.825 112.33 226.571 109.946 226.571 109.946C226.571 109.946 224.849 96.2586 224.833 93.1782C224.818 90.1007 225.276 73.4841 223.953 70.2505C223.133 68.2552 212.477 67.3071 201.993 68.2835Z" fill="#29ABE2"/>
<path d="M221.234 91.6589C221.234 91.6589 221.824 96.5818 221.842 100.121C221.859 103.661 223.815 107.268 223.101 109.81C222.387 112.352 221.928 117.434 221.928 117.434" stroke="#1689CB" stroke-miterlimit="10"/>
<path d="M209.011 67.9235C209.98 67.9187 209.397 72.7875 208.156 74.642C206.916 76.4964 201.403 79.4475 197.046 79.6232C192.372 79.8119 190.008 78.3948 191.531 74.2628C192.328 72.1054 192.801 69.7927 194.411 69.4766C196.025 69.1606 197.172 68.9637 200.924 68.5971C204.676 68.2304 208.042 67.9284 209.011 67.9235Z" fill="#7A462F"/>
<path d="M203.738 73.1035C207.382 72.1897 207.175 72.1451 206.826 70.3471L205.674 61.8788C205.397 60.4484 203.706 59.5812 201.436 60.1487L196.611 61.1967C194.406 61.7467 193.543 63.2199 193.589 64.6572C193.589 64.6572 194.26 70.7235 194.834 72.6117C195.415 74.5226 200.09 74.0173 203.738 73.1035Z" fill="#A96443"/>
<path d="M203.53 73.3881C195.381 69.4726 193.54 63.2211 193.586 64.6556C193.586 64.6556 194.048 71.0052 194.623 72.8934C195.21 74.8072 199.882 74.3047 203.53 73.3881Z" fill="#7A462F"/>
<path d="M184.499 88.0712L185.393 92.6931C185.393 92.6931 199.541 94.1143 217.565 91.8311L216.45 86.6427C216.447 86.6427 203.598 88.9001 184.499 88.0712Z" fill="#3E4C6F"/>
<path d="M217.696 94.0237C217.696 94.0237 201.533 95.9526 185.782 95.107L186.61 99.2956C186.61 99.2956 191.941 100.193 199.813 99.9999C207.684 99.8067 218.808 98.1739 218.808 98.1739L217.696 94.0237Z" fill="#3E4C6F"/>
<path d="M207.194 50.6792C209.24 64.5395 206.46 63.5636 200.549 64.6712C195.604 65.6 190.518 60.6311 189.228 53.7522C187.937 46.8733 190.912 40.6092 195.873 39.7602C200.833 38.9111 205.937 42.1601 207.194 50.6792Z" fill="#273252"/>
<path d="M204.049 49.277C202.831 42.951 201.455 39.4496 194.209 40.1789C190.427 40.5599 186.813 41.5306 184.852 43.0036C183.079 44.3359 182.185 46.0859 182.269 50.3582C182.333 53.578 182.612 59.1157 184.65 64.1711C185.958 67.4105 190.59 67.9179 194.518 67.5047C204.458 66.4626 205.789 65.2209 205.414 58.4145C205.062 52.0158 204.55 51.8729 204.049 49.277Z" fill="#7A462F"/>
<path d="M202.47 42.6422C200.142 38.9202 194.316 43.6041 197.033 44.529C201.036 45.8952 200.113 54.5678 199.49 59.8304C198.804 65.6211 195.357 67.0644 195.357 67.0644C195.357 67.0644 197.253 67.1034 199.481 66.5247C203.108 65.5825 205.689 65.6466 205.168 57.178C204.921 53.1148 203.902 44.9282 202.47 42.6422Z" fill="#A96443"/>
<path d="M183.292 43.1208C182.758 43.5684 182.259 47.2503 182.25 49.5293C182.249 50.0085 182.645 46.5154 183.319 45.6763C183.319 45.6763 185.466 46.1476 187.905 45.8046C192.433 45.1688 196.462 44.0107 196.462 44.0107C196.462 44.0107 198.335 48.8929 199.859 50.4141C201.422 51.9751 203.235 52.7304 203.235 52.7304L205 49.0708C204.306 44.2939 202.201 40.3454 198.738 39.855C192.399 38.9596 185.251 41.4739 183.292 43.1208Z" fill="#273252"/>
<path d="M194.687 53.828C194.749 54.7863 194.289 54.9255 193.78 54.9537C193.272 54.9848 192.897 54.8954 192.824 53.9372C192.75 52.9704 193.111 52.1526 193.631 52.1215C194.152 52.0932 194.625 52.8612 194.687 53.828Z" fill="#1D2538"/>
<path d="M191.89 49.0069C191.89 49.0069 193.941 48.6258 194.917 49.4769" stroke="#1D2538" stroke-miterlimit="10" stroke-linecap="round" stroke-linejoin="round"/>
<path d="M187.298 54.7233C187.395 55.6187 186.989 55.7091 186.51 55.7372C186.032 55.7652 185.655 55.7215 185.549 54.8262C185.439 53.9223 185.747 53.1562 186.234 53.1281C186.722 53.0972 187.198 53.8166 187.298 54.7233Z" fill="#1D2538"/>
<path d="M186.763 49.9909C186.763 49.9909 185.218 49.5878 183.944 50.8809" stroke="#1D2538" stroke-miterlimit="10" stroke-linecap="round" stroke-linejoin="round"/>
<path d="M207.947 53.4733C207.45 55.7947 205.658 57.4665 203.928 57.2754C203.928 57.2754 203.597 52.0489 203.499 51.0539C203.436 50.4296 203.717 48.4858 205.56 48.6906C207.398 48.8953 208.458 51.072 207.947 53.4733Z" fill="#A96443"/>
<path d="M206.996 55.9057C206.934 56.5308 206.335 57.0188 205.664 56.9993C204.994 56.9798 204.492 56.4574 204.546 55.8323C204.599 55.2016 205.195 54.7022 205.877 54.7216C206.56 54.741 207.062 55.2749 206.996 55.9057Z" fill="#F3E7D9"/>
<path d="M199.208 126.86C199.208 126.86 199.614 131.347 195.541 131.65C195.541 131.65 199.087 127.796 199.208 126.86Z" fill="#CE9436"/>
<path d="M183.602 182.098C178.284 183.941 170.505 185.808 170.196 188.032C169.887 190.241 169.696 192.575 169.93 193.395C170.11 194.016 170.408 194.382 170.938 194.574C172.286 195.06 174.987 196.242 180.369 196.586C182.691 196.734 187.718 195.451 190.719 193.263C193.097 191.531 195.944 189.52 197.008 188.768C197.285 188.572 197.463 188.284 197.5 187.961L197.799 185.484C197.859 184.979 197.564 184.487 197.063 184.27C194.713 183.246 187.92 180.599 183.602 182.098Z" fill="#29ABE2"/>
<path d="M183.828 179.957C179.19 181.494 170.396 184.938 170.105 187.142C169.843 189.131 169.732 190.227 169.822 190.985C169.866 191.356 170.964 191.507 171.504 191.681C172.876 192.122 175.621 193.192 181.084 193.522C183.438 193.664 188.017 192.991 191.058 191.039C193.583 189.42 196.628 187.528 197.573 186.942C197.761 186.824 197.885 186.649 197.917 186.452L198.216 184.531C198.343 183.706 198.062 180.16 197.101 179.893C193.603 178.924 187.936 178.593 183.828 179.957Z" fill="#121721"/>
<path d="M184.523 185.701C184.523 185.701 180.037 182.152 175.127 183.663" stroke="#29ABE2" stroke-width="2" stroke-miterlimit="10" stroke-linecap="round" stroke-linejoin="round"/>
<path d="M187.496 183.889C187.496 183.889 182.838 180.698 177.943 182.202" stroke="#29ABE2" stroke-width="2" stroke-miterlimit="10" stroke-linecap="round" stroke-linejoin="round"/>
<path d="M191.724 181.886C191.724 181.886 189.973 182.208 186.072 182.113C182.169 182.022 181.882 180.811 180.853 180.291C179.825 179.771 177.641 182.144 178.463 176.033C179.285 169.922 178.226 167.549 177.908 166.033C177.589 164.517 177.254 166.313 177.239 161.519C177.224 156.724 177.513 152.923 177.18 146.613C176.846 140.303 175.72 120.149 176.409 117.455C177.102 114.759 196.433 115.59 197.892 120.246C199.351 124.902 197.713 130.43 197.132 132.649C196.55 134.868 197.471 141.332 196.889 145.722C196.563 148.165 196.587 155.435 197.274 163.569C197.96 171.703 198.585 174.581 199.16 175.454C199.736 176.327 199.078 179.328 198.722 180.599C198.373 181.872 191.724 181.886 191.724 181.886Z" fill="#F7BC4B"/>
<path d="M227.339 118.562C226.845 116.716 226.519 117.987 212.076 116.177C200.898 114.775 185.736 109.845 183.508 115.857C181.28 121.869 212.109 122.794 219.21 122.912C226.314 123.031 227.832 120.408 227.339 118.562Z" fill="#F7BC4B"/>
<path d="M186.954 127.383C186.954 127.383 180.968 124.643 181.431 120.485C181.901 116.264 192.349 114.661 197.457 113.865C188 110.912 177.102 114.765 176.41 117.461C175.717 120.157 176.846 140.311 177.18 146.619C177.514 152.929 177.224 156.73 177.239 161.524C177.251 166.319 177.586 164.523 177.908 166.039C178.229 167.555 179.285 169.928 178.463 176.039C177.641 182.15 179.825 179.777 180.853 180.297C181.882 180.816 182.169 182.027 186.073 182.119C189.976 182.211 191.724 181.891 191.724 181.891C191.724 181.891 198.373 181.875 198.726 180.604C199.078 179.333 199.739 176.332 199.164 175.459C198.853 174.987 193.494 169.8 188.523 164.865L188.978 166.149L189.305 171.139C189.305 171.139 187.181 166.905 186.426 165.343C185.891 164.236 184.862 161.903 184.302 160.63C181.943 158.224 180.202 156.353 180.005 155.86C179.684 155.063 178.078 125.094 181.137 126.796C184.703 128.78 186.954 127.383 186.954 127.383Z" fill="#CE9436"/>
<path d="M222.417 69.645C220.949 69.7122 218.023 68.9738 216.506 74.2923C214.989 79.6107 218.8 92.2871 221.661 91.3516C224.521 90.416 224.047 83.4903 224.688 79.5624C225.33 75.6316 224.325 69.5585 222.417 69.645Z" fill="#7A462F"/>
<path d="M222.416 69.642C220.708 69.4251 220.083 70.8116 219.044 72.8162C217.411 75.9704 218.755 83.2711 221.617 82.7007C224.48 82.1302 224.369 76.0726 225.018 73.7077C225.667 71.3428 224.757 69.9412 222.416 69.642Z" fill="#A96443"/>
<path d="M232.658 84.8306C232.658 84.8306 231.188 81.4523 228.99 77.3075C226.792 73.1627 225.4 69.322 222.5 70.2606C219.601 71.1992 218.373 75.6691 218.148 79.1328C217.923 82.5966 219.636 85.9736 222.395 89.3455C224.61 92.0498 227.171 100.557 230.258 104.235C234.112 108.831 237.395 111.587 240.771 109.031C244.147 106.476 241.937 100.021 239.25 95.6477C236.564 91.2743 232.658 84.8306 232.658 84.8306Z" fill="#A96443"/>
<path d="M220.787 82.8874C217.716 79.4087 218.928 74.2772 218.928 74.2772C218.928 74.2772 218.089 75.6676 217.864 79.1313C217.639 82.5951 219.351 85.9721 222.111 89.344C224.326 92.0483 227.171 100.554 230.255 104.232C230.255 104.232 238.559 102.747 236.013 102.067C233.591 101.42 232.203 102.1 231.531 101.051C230.22 99.0126 225.789 90.2869 225.789 90.2869C225.789 90.2869 223.22 85.6477 220.787 82.8874Z" fill="#7A462F"/>
<path d="M238.799 102.344C238.799 102.344 236.708 101.604 231.389 103.248C226.071 104.892 228.65 106.319 218.929 110.985C213.949 113.375 217.41 117.61 224.181 116.424C230.953 115.235 236.433 113.671 239.805 110.191C243.176 106.709 243.408 104.631 238.799 102.344Z" fill="#A96443"/>
<path d="M229.379 106.778C230.802 105.536 233.147 103.624 233.798 102.831C234.303 102.215 233.706 102.432 231.38 103.151C226.061 104.795 228.653 106.319 218.931 110.986C213.949 113.375 226.847 108.984 229.379 106.778Z" fill="#7A462F"/>
<path d="M219.963 112.136C219.183 111.632 214.625 109.855 211.962 109.637C209.299 109.419 206.395 110.127 206.395 110.127L201.079 112.23C201.079 112.23 199.273 114.087 198.792 114.78C198.311 115.475 199.223 116.104 199.223 116.104C199.223 116.104 201.104 117.19 201.467 116.843C201.827 116.496 201.827 116.496 201.827 116.496C201.827 116.496 202.801 117.529 203.529 117.642C204.256 117.753 205.102 117.635 205.102 117.635C205.102 117.635 207.044 118.432 208.375 118.425C209.706 118.419 210.907 116.45 212.237 116.213C213.567 115.975 214.728 117.875 217.269 117.745C219.811 117.618 222.271 113.624 219.963 112.136Z" fill="#A96443"/>
<path d="M218.269 111.365C216.489 110.664 213.784 109.785 211.962 109.637C209.299 109.419 206.395 110.127 206.395 110.127L201.079 112.23C201.079 112.23 199.273 114.087 198.792 114.78C198.311 115.475 199.223 116.104 199.223 116.104C199.223 116.104 201.104 117.19 201.467 116.843C201.827 116.496 201.827 116.496 201.827 116.496C201.827 116.496 202.801 117.529 203.529 117.642C204.256 117.753 205.102 117.635 205.102 117.635L205.617 116.055L213.261 111.553C213.264 111.553 219.094 111.689 218.269 111.365Z" fill="#7A462F"/>
<path d="M115.385 160.221C115.385 160.221 117.343 165.285 118.554 166.452L119.791 163.793C119.788 163.793 118.058 161.172 115.385 160.221Z" fill="#992C29"/>
<path d="M116.201 162.388C116.201 162.388 115.408 166.63 115.846 168.125L118.107 167.409C118.104 167.409 117.923 164.729 116.201 162.388Z" fill="#992C29"/>
<path d="M60.0082 182.365C60.0082 182.365 58.4379 193.756 59.0017 196.455C59.5625 199.153 58.6046 202.592 57.465 204.386C56.8395 205.49 59.1 209.566 59.1 209.566C59.1 209.566 62.5742 210.513 65.9034 209.381C68.8146 208.391 68.0976 206.754 66.2483 205.959C64.3839 205.156 68.6722 197.827 68.6722 197.827C68.6722 197.827 71.8612 185.344 72.0641 183.46C72.2671 181.58 61.76 176.179 60.0082 182.365Z" fill="#1D2538"/>
<path d="M112.429 163.022C109.51 163.63 94.5849 162.977 93.3132 157.456C92.3746 153.376 90.6113 148.847 90.2083 145.386C90.2083 145.386 88.6079 142.941 87.1933 139.965C85.7726 136.974 86.3863 136.472 88.2178 137.285C90.0343 138.088 93.4742 141.154 93.4742 141.154C93.4742 141.154 97.808 138.149 103.835 137.609C109.68 137.086 108.328 139.004 110.537 141.58L112.13 143.925C112.13 143.925 116.366 141.696 119.179 141.371C121.95 141.052 122.91 142.137 124.103 145.063C125.335 148.083 125.394 148.391 124.726 150.171C124.056 151.96 121.657 155.321 119.001 157.818C119.01 157.813 115.306 162.423 112.429 163.022Z" fill="#1D2538"/>
<path d="M112.429 163.022C109.51 163.63 106.435 166.555 105.166 161.034C104.228 156.954 104.403 150.204 104.403 150.204C104.403 150.204 97.817 138.144 103.844 137.603C109.689 137.081 110.103 138.664 111.772 141.063L112.888 143.502C112.888 143.502 116.375 141.688 119.188 141.366C121.959 141.047 122.919 142.132 124.112 145.058C125.344 148.078 125.403 148.386 124.735 150.166C124.065 151.955 121.666 155.315 119.01 157.813C119.01 157.813 115.306 162.423 112.429 163.022Z" fill="#273252"/>
<path d="M122.896 142.388C123.971 143.715 121.885 145.229 120.801 143.899C119.712 142.561 116.719 142.077 118.459 141.452C119.662 141.024 121.819 141.056 122.896 142.388Z" fill="#121721"/>
<path d="M100.699 139.769C100.699 139.769 100.012 135.746 99.9286 132.728C99.8514 129.848 101.484 130.307 103.104 132.633C104.794 135.054 107.169 139.72 107.592 140.651C108.018 141.581 102.352 143.041 100.699 139.769Z" fill="#273252"/>
<path d="M101.918 133.275C101.311 130.394 101.899 131.255 103.519 133.578C105.206 135.994 105.098 136.479 105.524 137.412C105.948 138.343 102.457 135.839 101.918 133.275Z" fill="#1D2538"/>
<path d="M107.489 197.958C107.065 196.86 104.947 196.839 104.859 196.563C103.358 191.887 102.937 187.128 102.728 186.02C102.298 183.743 103.594 179.301 102.706 174.394C101.848 169.664 93.5319 174.277 94.4094 179.909C94.9161 183.161 97.3485 194.116 98.0393 197.09C98.1371 197.509 98.3275 197.904 98.6014 198.254L101.179 200.603C101.779 201.501 102.965 201.161 105.133 200.526C107.274 199.899 108.065 199.45 107.489 197.958Z" fill="#273252"/>
<path d="M122.963 203.663C122.664 200.778 118.941 200.862 118.941 200.862C118.721 200.484 117.987 199.769 117.911 199.384C117.322 196.466 117.462 189.714 117.318 188.417C117.017 185.718 117.254 177.539 116.694 171.312C116.13 165.057 108.171 170.437 108.163 176.643C108.159 181.061 112.188 198.597 112.564 200.283C112.564 200.283 116.831 206.024 118.891 205.814C120.927 205.607 123.148 205.442 122.963 203.663Z" fill="#273252"/>
<path d="M93.3267 159.495C92.1165 162.128 93.0405 163.29 89.6786 164.474C82.0323 167.167 75.7271 167.709 67.0655 170.131C61.4146 171.711 57.955 183.308 60.4146 186.505C62.8771 189.701 72.6662 189.071 78.8044 192.834C85.2426 196.78 92.2619 191.891 96.231 190.12C100.2 188.349 110.397 181.407 112.903 178.927C113.808 178.033 114.164 175.578 114.74 173C115.574 169.265 117.117 164.967 114.585 161.574C112.871 159.272 94.5369 156.865 93.3267 159.495Z" fill="#1D2538"/>
<path d="M108.406 163.59L104.699 170.357C104.699 170.357 100.474 176.596 100.847 176.58L105.189 183.635C105.189 183.635 110.401 181.404 112.904 178.924C113.808 178.03 115.766 175.966 116.342 173.385C117.176 169.65 116.614 166.672 115.67 161.426L108.406 163.59Z" fill="#273252"/>
<path d="M93.3204 158.329C93.3204 158.329 92.7081 159.094 92.8236 160.653C92.8236 160.653 98.0061 162.31 107.865 163.59C112.869 164.241 116.678 163.501 116.678 163.501L116.272 160.65C116.272 160.653 104.663 162.651 93.3204 158.329Z" fill="#992C29"/>
<path d="M68.6159 173.917C67.7308 172.766 66.473 173.637 63.0807 168.109C59.6883 162.581 58.4495 153.471 62.6844 150.412C62.6844 150.412 57.968 149.284 54.461 157.941C50.8741 166.792 61.0114 176.604 61.9394 177.364C66.0418 180.741 71.1327 177.193 68.6159 173.917Z" fill="#273252"/>
<path d="M69.102 174.227C68.2109 173.068 65.5722 177.727 60.5442 169.287C57.899 164.848 56.1207 153.696 62.6993 150.412C62.6993 150.412 55.3935 149.427 53.5461 158.62C51.1558 170.503 61.0125 176.826 61.9465 177.594C66.085 181.005 71.6428 177.532 69.102 174.227Z" fill="#1D2538"/>
<path d="M72.8111 185.094C72.8111 185.094 76.8861 199.777 78.6289 201.981C80.3626 204.175 81.7071 207.496 81.3369 209.426C80.9667 211.365 84.7885 213.651 84.7885 213.651C84.7885 213.651 89.7118 213.09 90.5239 212.803C91.333 212.517 92.8788 209.409 90.6979 209.3C88.493 209.191 87.1501 200.196 87.1501 200.196C87.1501 200.196 86.1936 184.128 85.5807 182.369C84.9678 180.612 71.8353 178.943 72.8111 185.094Z" fill="#1D2538"/>
<path d="M111.371 143.939C111.692 143.821 111.66 143.01 111.301 142.129C110.942 141.248 110.392 140.63 110.071 140.749C109.751 140.868 109.782 141.678 110.141 142.559C110.5 143.44 111.051 144.058 111.371 143.939Z" fill="#121721"/>
<path d="M121.483 153.95C121.483 153.95 117.161 153.972 117.199 157.249C117.203 157.5 117.342 157.736 117.564 157.872L120.624 159.728C120.624 159.728 126.787 166.16 127.76 166.848C128.732 167.537 132.534 169.44 135.017 165.888C137.241 162.708 135.82 157.228 133.275 156.661L121.483 153.95Z" fill="#F5894E"/>
<path d="M127.344 164.386C126.481 162.382 127.891 158.473 131.466 158.056C135.58 157.574 135.891 163.576 134.319 165.672C132.388 168.251 128.733 167.613 127.344 164.386Z" fill="#FFFCF3"/>
<path d="M127.496 162.462L129.48 163.953C129.48 163.953 129.203 163.663 129.31 162.222C129.38 161.275 130.194 160.241 132.08 159.439L130.203 158.929C130.203 158.929 127.904 159.229 127.496 162.462Z" fill="#F5894E"/>
<path d="M127.027 165.697C127.027 165.697 133.413 168.126 133.707 162.278C133.759 161.268 132.239 159.438 130.023 159.989C127.543 160.603 129.818 159.066 130.38 159.063C130.942 159.06 135.386 159.585 134.317 163.467C133.286 167.206 130.052 167.159 128.36 166.574C127.605 166.313 127.027 165.697 127.027 165.697Z" fill="#F5894E"/>
<path d="M122.736 154.175C122.736 154.175 118.557 153.591 118.975 158.812" stroke="#F7BC4B" stroke-miterlimit="10" stroke-linecap="round" stroke-linejoin="round"/>
<path d="M122.614 154.521C122.614 154.521 125.26 151.275 123.207 152.21C121.153 153.145 122.614 154.521 122.614 154.521Z" stroke="#F7BC4B" stroke-miterlimit="10"/>
<path d="M122.735 154.175C122.735 154.175 125.388 152.199 126.488 153.811C127.588 155.423 124.437 155.439 123.833 155.325C123.225 155.211 122.735 154.175 122.735 154.175Z" stroke="#F7BC4B" stroke-miterlimit="10"/>
<path d="M122.736 154.175C122.736 154.175 121.677 154.095 120.412 155.371C119.573 156.216 118.824 158.524 119.341 158.955" stroke="#F7BC4B" stroke-miterlimit="10" stroke-linecap="round" stroke-linejoin="round"/>
</svg>
